<svg width="113" height="108" viewBox="0 0 113 108" fill="none" xmlns="http://www.w3.org/2000/svg">
<path d="M80.1315 107.364C76.2729 107.364 72.6965 106.8 69.4026 105.67C66.1086 104.541 63.144 102.941 60.5088 100.871C57.8736 98.706 55.6149 96.0708 53.7326 92.9651H53.168L52.1798 105.67H37.9215V6.85103H54.862V45.5318C57.1207 42.3319 60.2735 39.6026 64.3204 37.3439C68.4614 35.0851 73.4024 33.9558 79.1433 33.9558C86.2019 33.9558 92.2251 35.5557 97.2132 38.7556C102.295 41.9554 106.154 46.3317 108.789 51.8844C111.518 57.343 112.883 63.6016 112.883 70.6601C112.883 77.7186 111.518 84.0243 108.789 89.577C106.154 95.0356 102.342 99.3648 97.3543 102.565C92.4604 105.765 86.7195 107.364 80.1315 107.364ZM75.3317 93.2474C79.4727 93.2474 83.0491 92.3063 86.0607 90.424C89.1665 88.4476 91.5664 85.7654 93.2604 82.3773C94.9544 78.9892 95.8015 75.0364 95.8015 70.519C95.8015 66.0956 94.9544 62.1899 93.2604 58.8018C91.5664 55.4137 89.1665 52.7785 86.0607 50.8962C83.0491 48.9199 79.4727 47.9317 75.3317 47.9317C71.1907 47.9317 67.5674 48.9199 64.4616 50.8962C61.3558 52.7785 58.9559 55.4137 57.2619 58.8018C55.5679 62.1899 54.7208 66.1427 54.7208 70.6601C54.7208 75.0835 55.5679 78.9892 57.2619 82.3773C58.9559 85.7654 61.3558 88.4476 64.4616 90.424C67.5674 92.3063 71.1907 93.2474 75.3317 93.2474Z" fill="black"/>
<path d="M6.52534 105.67V35.6498H23.4658V105.67H6.52534Z" fill="black"/>
<path d="M27.151 0.133657C27.6808 -0.117205 28.3107 -0.00854854 28.7252 0.405952C29.1397 0.820453 29.2483 1.45033 28.9975 1.98012L16.5125 28.3373C16.2617 28.8668 15.7056 29.1821 15.1226 29.1243C14.5396 29.0665 14.0563 28.6482 13.9142 28.0799L11.3416 17.7895L1.05125 15.2169C0.482867 15.0748 0.0645635 14.5916 0.00677746 14.0085C-0.0509582 13.4255 0.264338 12.8694 0.793861 12.6186L27.151 0.133657Z" fill="url(#paint0_linear_6_70)"/>
<defs>
<linearGradient id="paint0_linear_6_70" x1="0.0585151" y1="29.1311" x2="29.0726" y2="-5.01367e-07" gradientUnits="userSpaceOnUse">
<stop offset="0.289557" stop-color="#69A825"/>
<stop offset="1" stop-color="#C4FF86"/>
</linearGradient>
</defs>
</svg>
