<svg width="174" height="28" viewBox="0 0 174 28" fill="none" xmlns="http://www.w3.org/2000/svg">
<path d="M158.796 28V7.63721H161.254L161.458 10.3581H161.576C162.005 9.67544 162.492 9.10981 163.038 8.6612C163.604 8.2126 164.238 7.87127 164.94 7.63721C165.642 7.40316 166.393 7.28613 167.193 7.28613C168.578 7.28613 169.777 7.61771 170.791 8.28086C171.825 8.94402 172.615 9.85098 173.161 11.0017C173.727 12.1525 174.01 13.4496 174.01 14.8929C174.01 16.3362 173.727 17.6333 173.161 18.7841C172.615 19.9348 171.815 20.8418 170.762 21.5049C169.709 22.1681 168.431 22.4997 166.93 22.4997C165.642 22.4997 164.569 22.2364 163.711 21.7097C162.853 21.1831 162.19 20.5882 161.722 19.9251V28H158.796ZM166.403 20.0128C167.359 20.0128 168.178 19.7983 168.86 19.3692C169.563 18.9401 170.099 18.3452 170.47 17.5845C170.86 16.8239 171.055 15.9266 171.055 14.8929C171.055 13.8787 170.86 12.9912 170.47 12.2305C170.099 11.4504 169.563 10.8457 168.86 10.4166C168.178 9.98751 167.359 9.77296 166.403 9.77296C165.467 9.77296 164.647 9.98751 163.945 10.4166C163.243 10.8457 162.697 11.4504 162.307 12.2305C161.936 12.9912 161.751 13.8787 161.751 14.8929C161.751 15.9266 161.936 16.8239 162.307 17.5845C162.697 18.3452 163.243 18.9401 163.945 19.3692C164.647 19.7983 165.467 20.0128 166.403 20.0128Z" fill="#B9FF70"/>
<path d="M140.225 28V7.63721H142.682L142.887 10.3581H143.004C143.433 9.67544 143.921 9.10981 144.467 8.6612C145.033 8.2126 145.667 7.87127 146.369 7.63721C147.071 7.40316 147.822 7.28613 148.622 7.28613C150.006 7.28613 151.206 7.61771 152.22 8.28086C153.254 8.94402 154.044 9.85098 154.59 11.0017C155.156 12.1525 155.438 13.4496 155.438 14.8929C155.438 16.3362 155.156 17.6333 154.59 18.7841C154.044 19.9348 153.244 20.8418 152.191 21.5049C151.138 22.1681 149.86 22.4997 148.358 22.4997C147.071 22.4997 145.998 22.2364 145.14 21.7097C144.282 21.1831 143.619 20.5882 143.151 19.9251V28H140.225ZM147.832 20.0128C148.787 20.0128 149.607 19.7983 150.289 19.3692C150.991 18.9401 151.528 18.3452 151.898 17.5845C152.288 16.8239 152.483 15.9266 152.483 14.8929C152.483 13.8787 152.288 12.9912 151.898 12.2305C151.528 11.4504 150.991 10.8457 150.289 10.4166C149.607 9.98751 148.787 9.77296 147.832 9.77296C146.895 9.77296 146.076 9.98751 145.374 10.4166C144.672 10.8457 144.126 11.4504 143.736 12.2305C143.365 12.9912 143.18 13.8787 143.18 14.8929C143.18 15.9266 143.365 16.8239 143.736 17.5845C144.126 18.3452 144.672 18.9401 145.374 19.3692C146.076 19.7983 146.895 20.0128 147.832 20.0128Z" fill="#B9FF70"/>
<path d="M119.899 22.1485L127.418 1.6687H130.607L138.126 22.1485H134.996L128.998 5.17952L122.971 22.1485H119.899ZM123.293 17.087L124.112 14.7465H133.738L134.557 17.087H123.293Z" fill="#B9FF70"/>
<path d="M108.413 22.4382C107.262 22.4382 106.297 22.2431 105.516 21.853C104.756 21.4434 104.19 20.8973 103.819 20.2146C103.449 19.532 103.264 18.7908 103.264 17.9911C103.264 17.0354 103.507 16.2162 103.995 15.5335C104.502 14.8509 105.224 14.3243 106.16 13.9537C107.116 13.5831 108.257 13.3978 109.583 13.3978H113.416C113.416 12.5201 113.279 11.7984 113.006 11.2328C112.753 10.6477 112.372 10.2186 111.865 9.94549C111.358 9.65293 110.744 9.50664 110.022 9.50664C109.125 9.50664 108.345 9.73095 107.681 10.1795C107.038 10.6086 106.648 11.2913 106.511 12.2275H103.585C103.702 11.1548 104.044 10.2576 104.609 9.5359C105.195 8.79473 105.955 8.22909 106.891 7.839C107.828 7.42941 108.871 7.22461 110.022 7.22461C111.407 7.22461 112.567 7.46842 113.503 7.95603C114.459 8.44364 115.171 9.13605 115.639 10.0333C116.107 10.911 116.341 11.9545 116.341 13.1637V22.0871H113.913L113.621 19.6588H113.503C113.23 20.1269 112.909 20.5365 112.538 20.8875C112.167 21.2191 111.768 21.5019 111.338 21.736C110.929 21.97 110.471 22.1456 109.963 22.2626C109.476 22.3796 108.959 22.4382 108.413 22.4382ZM109.115 20.0684C109.798 20.0684 110.393 19.9416 110.9 19.688C111.426 19.4345 111.865 19.0931 112.216 18.664C112.587 18.2154 112.86 17.7181 113.035 17.1719C113.23 16.6258 113.338 16.0602 113.357 15.475H109.876C109.017 15.475 108.325 15.5726 107.798 15.7676C107.291 15.9626 106.921 16.2357 106.687 16.5868C106.453 16.9379 106.336 17.3475 106.336 17.8156C106.336 18.2642 106.443 18.664 106.657 19.0151C106.891 19.3467 107.213 19.61 107.623 19.805C108.052 19.9806 108.549 20.0684 109.115 20.0684Z" fill="white"/>
<path d="M93.5278 22.438C92.7281 22.438 91.9772 22.321 91.275 22.087C90.5729 21.8529 89.939 21.5116 89.3733 21.063C88.8272 20.6144 88.3396 20.0487 87.9105 19.3661H87.7935L87.5887 22.087H85.1311V1.60718H88.0568V9.79909C88.5249 9.13593 89.188 8.54104 90.0462 8.01442C90.9044 7.4878 91.9772 7.22449 93.2645 7.22449C94.7664 7.22449 96.0439 7.55607 97.0971 8.21922C98.1504 8.88237 98.9501 9.78934 99.4962 10.9401C100.062 12.0909 100.345 13.3879 100.345 14.8313C100.345 16.2746 100.062 17.5717 99.4962 18.7224C98.9501 19.8732 98.1602 20.7802 97.1264 21.4433C96.1122 22.1065 94.9126 22.438 93.5278 22.438ZM92.7379 19.9512C93.6936 19.9512 94.5128 19.7367 95.1954 19.3076C95.8976 18.8785 96.434 18.2836 96.8046 17.5229C97.1947 16.7427 97.3897 15.8455 97.3897 14.8313C97.3897 13.7975 97.1947 12.9003 96.8046 12.1396C96.434 11.379 95.8976 10.7841 95.1954 10.355C94.5128 9.92587 93.6936 9.71132 92.7379 9.71132C91.8017 9.71132 90.9825 9.92587 90.2803 10.355C89.5781 10.7841 89.032 11.379 88.6419 12.1396C88.2713 12.9003 88.086 13.7975 88.086 14.8313C88.086 15.8455 88.2713 16.7427 88.6419 17.5229C89.032 18.2836 89.5781 18.8785 90.2803 19.3076C90.9825 19.7367 91.8017 19.9512 92.7379 19.9512Z" fill="white"/>
<path d="M73.5559 22.4382C72.4051 22.4382 71.4396 22.2431 70.6595 21.853C69.8988 21.4434 69.3331 20.8973 68.9626 20.2146C68.592 19.532 68.4067 18.7908 68.4067 17.9911C68.4067 17.0354 68.6505 16.2162 69.1381 15.5335C69.6452 14.8509 70.3669 14.3243 71.3031 13.9537C72.2588 13.5831 73.3999 13.3978 74.7262 13.3978H78.5588C78.5588 12.5201 78.4223 11.7984 78.1492 11.2328C77.8957 10.6477 77.5153 10.2186 77.0082 9.94549C76.5011 9.65293 75.8867 9.50664 75.165 9.50664C74.2678 9.50664 73.4876 9.73095 72.8245 10.1795C72.1808 10.6086 71.7907 11.2913 71.6542 12.2275H68.7285C68.8455 11.1548 69.1869 10.2576 69.7525 9.5359C70.3376 8.79473 71.0983 8.22909 72.0345 7.839C72.9708 7.42941 74.0143 7.22461 75.165 7.22461C76.5498 7.22461 77.7104 7.46842 78.6466 7.95603C79.6023 8.44364 80.3142 9.13605 80.7823 10.0333C81.2505 10.911 81.4845 11.9545 81.4845 13.1637V22.0871H79.0562L78.7636 19.6588H78.6466C78.3735 20.1269 78.0517 20.5365 77.6811 20.8875C77.3105 21.2191 76.9107 21.5019 76.4816 21.736C76.072 21.97 75.6136 22.1456 75.1065 22.2626C74.6189 22.3796 74.102 22.4382 73.5559 22.4382ZM74.2581 20.0684C74.9407 20.0684 75.5356 19.9416 76.0427 19.688C76.5694 19.4345 77.0082 19.0931 77.3593 18.664C77.7299 18.2154 78.0029 17.7181 78.1785 17.1719C78.3735 16.6258 78.4808 16.0602 78.5003 15.475H75.0187C74.1605 15.475 73.4681 15.5726 72.9415 15.7676C72.4344 15.9626 72.0638 16.2357 71.8297 16.5868C71.5957 16.9379 71.4787 17.3475 71.4787 17.8156C71.4787 18.2642 71.5859 18.664 71.8005 19.0151C72.0345 19.3467 72.3564 19.61 72.766 19.805C73.1951 19.9806 73.6924 20.0684 74.2581 20.0684Z" fill="white"/>
<path d="M50.2743 27.9384V7.57569H52.7319L52.9367 10.2966H53.0537C53.4828 9.61392 53.9704 9.04828 54.5165 8.59968C55.0822 8.15108 55.7161 7.80975 56.4182 7.57569C57.1204 7.34164 57.8713 7.22461 58.671 7.22461C60.0558 7.22461 61.2554 7.55619 62.2696 8.21934C63.3034 8.8825 64.0933 9.78946 64.6394 10.9402C65.2051 12.091 65.4879 13.388 65.4879 14.8314C65.4879 16.2747 65.2051 17.5718 64.6394 18.7225C64.0933 19.8733 63.2936 20.7803 62.2404 21.4434C61.1871 22.1066 59.9096 22.4382 58.4077 22.4382C57.1204 22.4382 56.0477 22.1748 55.1895 21.6482C54.3312 21.1216 53.6681 20.5267 53.2 19.8636V27.9384H50.2743ZM57.8811 19.9513C58.8368 19.9513 59.656 19.7368 60.3387 19.3077C61.0408 18.8786 61.5772 18.2837 61.9478 17.523C62.3379 16.7623 62.5329 15.8651 62.5329 14.8314C62.5329 13.8171 62.3379 12.9297 61.9478 12.169C61.5772 11.3888 61.0408 10.7842 60.3387 10.3551C59.656 9.92599 58.8368 9.71144 57.8811 9.71144C56.9449 9.71144 56.1257 9.92599 55.4235 10.3551C54.7213 10.7842 54.1752 11.3888 53.7851 12.169C53.4145 12.9297 53.2292 13.8171 53.2292 14.8314C53.2292 15.8651 53.4145 16.7623 53.7851 17.523C54.1752 18.2837 54.7213 18.8786 55.4235 19.3077C56.1257 19.7368 56.9449 19.9513 57.8811 19.9513Z" fill="white"/>
<path d="M38.699 22.4382C37.5482 22.4382 36.5828 22.2431 35.8026 21.853C35.0419 21.4434 34.4763 20.8973 34.1057 20.2146C33.7351 19.532 33.5498 18.7908 33.5498 17.9911C33.5498 17.0354 33.7936 16.2162 34.2812 15.5335C34.7883 14.8509 35.51 14.3243 36.4462 13.9537C37.402 13.5831 38.543 13.3978 39.8693 13.3978H43.7019C43.7019 12.5201 43.5654 11.7984 43.2924 11.2328C43.0388 10.6477 42.6585 10.2186 42.1513 9.94549C41.6442 9.65293 41.0298 9.50664 40.3081 9.50664C39.4109 9.50664 38.6308 9.73095 37.9676 10.1795C37.3239 10.6086 36.9339 11.2913 36.7973 12.2275H33.8716C33.9887 11.1548 34.33 10.2576 34.8956 9.5359C35.4808 8.79473 36.2414 8.22909 37.1777 7.839C38.1139 7.42941 39.1574 7.22461 40.3081 7.22461C41.693 7.22461 42.8535 7.46842 43.7897 7.95603C44.7454 8.44364 45.4574 9.13605 45.9255 10.0333C46.3936 10.911 46.6276 11.9545 46.6276 13.1637V22.0871H44.1993L43.9067 19.6588H43.7897C43.5167 20.1269 43.1948 20.5365 42.8242 20.8875C42.4537 21.2191 42.0538 21.5019 41.6247 21.736C41.2151 21.97 40.7568 22.1456 40.2496 22.2626C39.762 22.3796 39.2451 22.4382 38.699 22.4382ZM39.4012 20.0684C40.0838 20.0684 40.6787 19.9416 41.1859 19.688C41.7125 19.4345 42.1513 19.0931 42.5024 18.664C42.873 18.2154 43.1461 17.7181 43.3216 17.1719C43.5167 16.6258 43.6239 16.0602 43.6434 15.475H40.1619C39.3037 15.475 38.6112 15.5726 38.0846 15.7676C37.5775 15.9626 37.2069 16.2357 36.9729 16.5868C36.7388 16.9379 36.6218 17.3475 36.6218 17.8156C36.6218 18.2642 36.7291 18.664 36.9436 19.0151C37.1777 19.3467 37.4995 19.61 37.9091 19.805C38.3382 19.9806 38.8356 20.0684 39.4012 20.0684Z" fill="white"/>
<path d="M27.0256 22.087V7.57558H29.9512V22.087H27.0256ZM28.4884 5.00098C27.9228 5.00098 27.4547 4.82543 27.0841 4.47435C26.7135 4.12327 26.5282 3.67467 26.5282 3.12854C26.5282 2.60192 26.7135 2.16307 27.0841 1.81198C27.4547 1.4414 27.9228 1.2561 28.4884 1.2561C29.0345 1.2561 29.4929 1.4414 29.8635 1.81198C30.2341 2.16307 30.4193 2.60192 30.4193 3.12854C30.4193 3.65516 30.2341 4.10377 29.8635 4.47435C29.4929 4.82543 29.0345 5.00098 28.4884 5.00098Z" fill="white"/>
<path d="M17.1314 22.3999C16.3281 22.3999 15.5738 22.2824 14.8685 22.0473C14.1632 21.8122 13.5264 21.4693 12.9582 21.0187C12.4096 20.568 11.9198 19.9998 11.4888 19.3141H11.3712L11.1655 22.0473H8.69684V1.4751H11.6357V9.70397C12.1059 9.03782 12.7721 8.44025 13.6342 7.91125C14.4962 7.38225 15.5738 7.11775 16.8669 7.11775C18.3756 7.11775 19.6589 7.45082 20.7169 8.11697C21.7749 8.78312 22.5782 9.69417 23.1268 10.8501C23.695 12.0061 23.979 13.309 23.979 14.7588C23.979 16.2087 23.695 17.5116 23.1268 18.6676C22.5782 19.8235 21.7847 20.7346 20.7463 21.4007C19.7275 22.0669 18.5225 22.3999 17.1314 22.3999ZM16.3379 19.9019C17.298 19.9019 18.1209 19.6864 18.8066 19.2553C19.5119 18.8243 20.0507 18.2267 20.423 17.4626C20.8148 16.6789 21.0108 15.7777 21.0108 14.7588C21.0108 13.7204 20.8148 12.8192 20.423 12.0551C20.0507 11.291 19.5119 10.6934 18.8066 10.2624C18.1209 9.83132 17.298 9.6158 16.3379 9.6158C15.3975 9.6158 14.5746 9.83132 13.8693 10.2624C13.1639 10.6934 12.6154 11.291 12.2235 12.0551C11.8512 12.8192 11.6651 13.7204 11.6651 14.7588C11.6651 15.7777 11.8512 16.6789 12.2235 17.4626C12.6154 18.2267 13.1639 18.8243 13.8693 19.2553C14.5746 19.6864 15.3975 19.9019 16.3379 19.9019Z" fill="white"/>
<path d="M1.70229 22.0473V7.47046H4.64117V22.0473H1.70229Z" fill="white"/>
<path d="M5.83051 0.0287019C5.94428 -0.0251691 6.07954 -0.00183574 6.16855 0.0871756C6.25756 0.176187 6.28089 0.311449 6.22702 0.425217L3.54596 6.08524C3.49209 6.19895 3.37269 6.26666 3.24748 6.25426C3.12228 6.24185 3.0185 6.15202 2.98798 6.02996L2.43554 3.82018L0.22575 3.26774C0.103693 3.23722 0.0138646 3.13344 0.00145542 3.00824C-0.010943 2.88303 0.056765 2.76363 0.170477 2.70976L5.83051 0.0287019Z" fill="#B9FF70"/>
</svg>
