<svg width="383" height="364" viewBox="0 0 383 364" fill="none" xmlns="http://www.w3.org/2000/svg">
<path d="M271.671 364C258.589 364 246.464 362.086 235.297 358.257C224.129 354.428 214.078 349.004 205.144 341.984C196.21 334.645 188.552 325.711 182.171 315.181H180.256L176.906 358.257H128.566V23.2275H186V154.368C193.657 143.519 204.346 134.266 218.067 126.608C232.106 118.95 248.858 115.121 268.321 115.121C292.252 115.121 312.673 120.546 329.584 131.394C346.814 142.243 359.896 157.08 368.83 175.905C378.083 194.411 382.71 215.63 382.71 239.561C382.71 263.491 378.083 284.869 368.83 303.695C359.896 322.201 346.973 336.879 330.062 347.727C313.47 358.576 294.007 364 271.671 364ZM255.399 316.139C269.438 316.139 281.563 312.948 291.773 306.566C302.303 299.866 310.439 290.772 316.183 279.286C321.926 267.799 324.798 254.398 324.798 239.082C324.798 224.085 321.926 210.844 316.183 199.357C310.439 187.87 302.303 178.936 291.773 172.555C281.563 165.854 269.438 162.504 255.399 162.504C241.359 162.504 229.075 165.854 218.545 172.555C208.016 178.936 199.879 187.87 194.136 199.357C188.393 210.844 185.521 224.245 185.521 239.561C185.521 254.557 188.393 267.799 194.136 279.286C199.879 290.772 208.016 299.866 218.545 306.566C229.075 312.948 241.359 316.139 255.399 316.139Z" fill="white"/>
<path d="M22.1226 358.257V120.865H79.5562V358.257H22.1226Z" fill="white"/>
<path d="M92.0506 0.453138C93.8468 -0.397363 95.9823 -0.0289823 97.3876 1.37631C98.7929 2.7816 99.1612 4.91709 98.3107 6.71323L55.9827 96.0723C55.1323 97.8675 53.2472 98.9365 51.2704 98.7407C49.2938 98.5448 47.6553 97.1267 47.1735 95.1996L38.4517 60.3121L3.56409 51.5903C1.63708 51.1085 0.218891 49.47 0.0229778 47.4934C-0.172765 45.5166 0.896192 43.6315 2.69144 42.7811L92.0506 0.453138Z" fill="#ACFF53"/>
</svg>
